<svg xmlns="http://www.w3.org/2000/svg" version="1.1" xmlnsxlink="http://www.w3.org/1999/xlink"  width="512" height="512" x="0" y="0" viewBox="0 0 16.933333 16.933334" style="enable-background:new 0 0 512 512" xmlspace="preserve" class=""><g><clipPath xmlns="http://www.w3.org/2000/svg" id="clipPath5337"><path id="rect5339" d="m34.774 274.321h35.435v25.702h-35.435z" fill="#000000" data-original="#000000"></path></clipPath><clipPath xmlns="http://www.w3.org/2000/svg" id="clipPath4542"><path id="rect4544" d="m-535.214-48.848h501.574v185.586h-501.574z" fill="#000000" data-original="#000000"></path></clipPath><g xmlns="http://www.w3.org/2000/svg" id="layer1" transform="translate(0 -280.067)"><path id="rect6040-55-7" d="m1.6851532 287.24753 13.5786088-4.3053c.211746-.0708.394174-.19515.286897-.55556l-.252582-.79668c-.237447-.74894-1.031565-1.16074-1.780525-.92329l-11.9981906 3.80397c-.74896332.23746-1.16074679 1.03159-.92329346 1.78053l.23209855.73206c.0963728.28637.30501711.43927.85698671.26427z" fill="#666666" vector-effect="none" data-original="#666666" class=""></path><path id="path7765" d="m48.197266 10.474609-35.41211 11.425782c-1.043594-1.41755-2.538253-2.169939-4.1640622-2.390625-2.6525469-.285355-3.0802813 3.693085-.4277344 3.978515 1.7346121.416409 2.3443906 1.518446 2.7597656 2.199219l39.763672-12.607422c.41226-1.623179-1.219709-2.994167-2.519531-2.605469z" fill="#4d4d4d" transform="matrix(.265 0 0 .265 0 280.067)" font-variant-ligatures="normal" font-variant-position="normal" font-variant-caps="normal" font-variant-numeric="normal" font-variant-alternates="normal" font-feature-settings="normal" text-indent="0" text-align="start" text-decoration-line="none" text-decoration-style="solid" text-decoration-color="#000000" text-transform="none" text-orientation="mixed" white-space="normal" shape-padding="0" isolation="auto" mix-blend-mode="normal" solid-color="#000000" solid-opacity="1" vector-effect="none" paint-order="normal" data-original="#4d4d4d" class=""></path><path id="path7501" d="m.98249241 288.04311v7.01383c0 .7857.63252509 1.41823 1.41822769 1.41823h12.5867699c.785702 0 1.418228-.63253 1.418228-1.41823v-6.97875c0-.41016-.31787-.82314-.783813-.82314h-13.8504091c-.4012473 0-.78900349.19974-.78900349.78806z" fill="#55a1ff" vector-effect="none" data-original="#55a1ff" class=""></path><path id="path7758" d="m14.570313 35.660156c-2.667968 0-2.667968 4.001953 0 4.001953h47.435546v-4.001953z" fill="#488bff" transform="matrix(.265 0 0 .265 0 280.067)" font-variant-ligatures="normal" font-variant-position="normal" font-variant-caps="normal" font-variant-numeric="normal" font-variant-alternates="normal" font-feature-settings="normal" text-indent="0" text-align="start" text-decoration-line="none" text-decoration-style="solid" text-decoration-color="#000000" text-transform="none" text-orientation="mixed" white-space="normal" shape-padding="0" isolation="auto" mix-blend-mode="normal" solid-color="#000000" solid-opacity="1" vector-effect="none" paint-order="normal" data-original="#488bff" class=""></path><path id="path7683" d="m62.005859 36.42299-.0058-6.142578c0-1.743898-1.354865-3.111328-2.957066-3.111328h-52.3476805c-1.9839503 0-2.9824219 1.192836-2.9824219 2.978516v6.27539z" fill="#666666" transform="matrix(.265 0 0 .265 0 280.067)" paint-order="normal" data-original="#666666" class=""></path><path id="path7515" d="m3.2038937 287.32248c.0000035.73861-.5987556 1.33737-1.3373636 1.33737s-1.33736717-.59876-1.33736364-1.33737c.00000199-.7386.59875954-1.33736 1.33736364-1.33736s1.3373616.59876 1.3373636 1.33736z" fill="#ffc861" paint-order="normal" data-original="#ffc861" class=""></path><g transform="matrix(.265 0 0 .265 0 280.067)"><path id="path7718" d="m22.394531 27.169922-6.269531 9.253906h12.982422l4.996094-9.253906z" fill="#d1dcff" paint-order="normal" data-original="#d1dcff" class=""></path><path id="path7720" d="m21.923828 11.513672-12.3671874 3.921875 11.9570314 6.902344 11.222656-3.556641z" fill="#d1dcff" vector-effect="none" data-original="#d1dcff" class=""></path><path id="path7728" d="m44.755859 27.169922-4.669921 9.253906h11.921874l4.56836-9.253906z" fill="#d1dcff" paint-order="normal" data-original="#d1dcff" class=""></path><path id="path7730" d="m45.826172 3.9355469-12.417969 3.9375 10.628906 7.3242191 11.746094-3.722657z" fill="#d1dcff" vector-effect="none" data-original="#d1dcff" class=""></path><path id="path7772" d="m29.400391 16.539062-11.501953 3.710938 3.615234 2.087891c3.740843-1.18568 7.481486-2.371993 11.222656-3.556641z" fill="#bfd2ff" font-variant-ligatures="normal" font-variant-position="normal" font-variant-caps="normal" font-variant-numeric="normal" font-variant-alternates="normal" font-feature-settings="normal" text-indent="0" text-align="start" text-decoration-line="none" text-decoration-style="solid" text-decoration-color="#000000" text-transform="none" text-orientation="mixed" white-space="normal" shape-padding="0" isolation="auto" mix-blend-mode="normal" solid-color="#000000" solid-opacity="1" vector-effect="none" paint-order="normal" data-original="#bfd2ff" class=""></path><path id="path7778" d="m48.197266 10.474609-7.501954 2.419922 3.341797 2.302735c2.226652-.705447 4.453312-1.410871 6.679688-2.117188.416607-1.491382-1.108993-3.015478-2.519531-2.605469z" fill="#bfd2ff" font-variant-ligatures="normal" font-variant-position="normal" font-variant-caps="normal" font-variant-numeric="normal" font-variant-alternates="normal" font-feature-settings="normal" text-indent="0" text-align="start" text-decoration-line="none" text-decoration-style="solid" text-decoration-color="#000000" text-transform="none" text-orientation="mixed" white-space="normal" shape-padding="0" isolation="auto" mix-blend-mode="normal" solid-color="#000000" solid-opacity="1" vector-effect="none" paint-order="normal" data-original="#bfd2ff" class=""></path><path id="path7738" d="m9.4570312 47c-1.3636037-.03061-1.3636037 2.030615 0 2h27.6660158c1.363604.03061 1.363604-2.030615 0-2zm11.1601568 5.923828c-3.739703.0082-7.517435.003906-11.257813.003906-1.2275604.152953-1.138978 1.960029.0976562 1.992188h11.0507808c1.373338.121279 1.487742-1.966593.109376-1.996094z" fill="#666666" font-variant-ligatures="normal" font-variant-position="normal" font-variant-caps="normal" font-variant-numeric="normal" font-variant-alternates="normal" font-feature-settings="normal" text-indent="0" text-align="start" text-decoration-line="none" text-decoration-style="solid" text-decoration-color="#000000" text-transform="none" text-orientation="mixed" white-space="normal" shape-padding="0" isolation="auto" mix-blend-mode="normal" solid-color="#000000" solid-opacity="1" vector-effect="none" data-original="#666666" class=""></path></g></g></g></svg>