<svg xmlns="http://www.w3.org/2000/svg" version="1.1" xmlnsXlink="http://www.w3.org/1999/xlink" width="512" height="512" x="0" y="0" viewBox="0 0 512 512" style="enable-background:new 0 0 512 512" xmlSpace="preserve" class=""><g><g xmlns="http://www.w3.org/2000/svg" id="flat"><path d="m393.6 176.615a8 8 0 0 0 -10.51-4.19l-112.506 48.375 47.066-118.063a8 8 0 0 0 -14.863-5.925l-47.066 118.059-52.408-121.9a8 8 0 1 0 -14.7 6.319l52.408 121.9-118.058-47.065a8 8 0 1 0 -5.926 14.862l118.063 47.067-110.256 47.4a8 8 0 1 0 6.32 14.7l124.956-53.723 124.921 49.8a8 8 0 1 0 5.926-14.862l-110.067-43.869 112.51-48.371a8 8 0 0 0 4.19-10.514z" fill="#ffc864" data-original="#ffc864"></path><path d="m432 227.775h-156.686l114.343-114.343a8 8 0 0 0 -11.314-11.314l-114.343 114.343v-132.686a8 8 0 1 0 -16 0v132.686l-114.343-114.343a8 8 0 0 0 -11.314 11.314l114.343 114.343h-156.686a8 8 0 1 0 0 16h156.686l-114.343 114.343a8 8 0 0 0 11.314 11.314l114.343-114.343v132.686a8 8 0 0 0 16 0v-132.686l114.343 114.343a8 8 0 0 0 11.314-11.314l-114.343-114.343h156.686a8 8 0 0 0 0-16z" fill="#dcdbd6" data-original="#dcdbd6"></path><path d="m256 339.775a104 104 0 1 1 104-104 104.118 104.118 0 0 1 -104 104zm0-192a88 88 0 1 0 88 88 88.1 88.1 0 0 0 -88-88z" fill="#cb2527" data-original="#cb2527"></path><path d="m256 419.775c-101.458 0-184-82.542-184-184s82.542-184 184-184 184 82.542 184 184-82.542 184-184 184zm0-352c-92.636 0-168 75.364-168 168s75.364 168 168 168 168-75.364 168-168-75.364-168-168-168z" fill="#cb2527" data-original="#cb2527"></path><path d="m480.972 208a8 8 0 0 1 -7.893-6.754c-.814-5.166-1.826-10.359-3.007-15.435a8 8 0 1 1 15.584-3.624c1.268 5.449 2.354 11.022 3.228 16.565a8.008 8.008 0 0 1 -7.912 9.248z" fill="#a6deff" data-original="#a6deff"></path><path d="m467.877 160a8 8 0 0 1 -7.44-5.058 219.536 219.536 0 0 0 -26.9-48.733 8 8 0 1 1 12.916-9.442 235.449 235.449 0 0 1 28.855 52.287 8.005 8.005 0 0 1 -7.431 10.946z" fill="#a6deff" data-original="#a6deff"></path><path d="m256 443.775a24 24 0 0 1 -24-24v-24h48v24a24 24 0 0 1 -24 24z" fill="#f7a014" data-original="#f7a014"></path><path d="m256 363.775-24 16v16h48v-16z" fill="#ea2b2d" data-original="#ea2b2d"></path><path d="m128 403.775a24 24 0 0 1 -24-24v-24h48v24a24 24 0 0 1 -24 24z" fill="#768753" data-original="#768753"></path><path d="m128 323.775-24 16v16h48v-16z" fill="#ea2b2d" data-original="#ea2b2d"></path><path d="m80 275.775a24 24 0 0 1 -24-24v-24h48v24a24 24 0 0 1 -24 24z" fill="#5ebef7" data-original="#5ebef7"></path><path d="m80 195.775-24 16v16h48v-16z" fill="#ea2b2d" data-original="#ea2b2d"></path><path d="m128 155.775a24 24 0 0 1 -24-24v-24h48v24a24 24 0 0 1 -24 24z" fill="#f7a014" data-original="#f7a014"></path><path d="m128 75.775-24 16v16h48v-16z" fill="#ea2b2d" data-original="#ea2b2d"></path><path d="m384 403.775a24 24 0 0 0 24-24v-24h-48v24a24 24 0 0 0 24 24z" fill="#768753" data-original="#768753"></path><path d="m384 323.775 24 16v16h-48v-16z" fill="#ea2b2d" data-original="#ea2b2d"></path><path d="m432 275.775a24 24 0 0 0 24-24v-24h-48v24a24 24 0 0 0 24 24z" fill="#5ebef7" data-original="#5ebef7"></path><path d="m432 195.775 24 16v16h-48v-16z" fill="#ea2b2d" data-original="#ea2b2d"></path><path d="m384 155.775a24 24 0 0 0 24-24v-24h-48v24a24 24 0 0 0 24 24z" fill="#f7a014" data-original="#f7a014"></path><path d="m384 75.775 24 16v16h-48v-16z" fill="#ea2b2d" data-original="#ea2b2d"></path><path d="m257.084 104a24 24 0 0 1 -24-24v-24h48v24a24 24 0 0 1 -24 24z" fill="#768753" data-original="#768753"></path><path d="m257.084 24-24 16v16h48v-16z" fill="#ea2b2d" data-original="#ea2b2d"></path><g fill="#a6deff"><path d="m35.11 291.777a8 8 0 0 1 -7.785-6.19c-1.267-5.449-2.353-11.023-3.227-16.566a8 8 0 0 1 15.8-2.493c.815 5.166 1.827 10.359 3.007 15.435a8.007 8.007 0 0 1 -7.8 9.814z" fill="#a6deff" data-original="#a6deff"></path><path d="m72.988 374.286a7.986 7.986 0 0 1 -6.465-3.28 235.449 235.449 0 0 1 -28.854-52.287 8 8 0 1 1 14.877-5.887 219.544 219.544 0 0 0 26.893 48.732 8 8 0 0 1 -6.451 12.722z" fill="#a6deff" data-original="#a6deff"></path><path d="m359.741 107.432h48v19.775h-48z" fill="#a6deff" data-original="#a6deff"></path><path d="m104 107.775h48v19.775h-48z" fill="#a6deff" data-original="#a6deff"></path><path d="m233.126 56.113h48v19.775h-48z" fill="#a6deff" data-original="#a6deff"></path><path d="m56 227.888h48v19.775h-48z" fill="#a6deff" data-original="#a6deff"></path><path d="m104 356.398h48v19.775h-48z" fill="#a6deff" data-original="#a6deff"></path><path d="m360 356.398h48v19.775h-48z" fill="#a6deff" data-original="#a6deff"></path><path d="m232.004 395.775h48v19.775h-48z" fill="#a6deff" data-original="#a6deff"></path><path d="m408 227.887h48v19.775h-48z" fill="#a6deff" data-original="#a6deff"></path></g><path d="m343.389 496h-174.778a24 24 0 0 1 -21.934-33.74l102.011-229.732a8 8 0 0 1 14.624 0l102.011 229.732a24 24 0 0 1 -21.934 33.74zm-87.389-240.513-94.7 213.266a8 8 0 0 0 7.311 11.247h174.778a8 8 0 0 0 7.311-11.247z" fill="#ea2b2d" data-original="#ea2b2d"></path><circle cx="256" cy="235.775" fill="#ea2b2d" r="40" data-original="#ea2b2d"></circle><circle cx="256" cy="235.775" fill="#cdccc8" r="20.227" data-original="#cdccc8"></circle></g></g></svg>