<svg xmlns="http://www.w3.org/2000/svg" version="1.1" xmlnsxlink="http://www.w3.org/1999/xlink"  width="512" height="512" x="0" y="0" viewBox="0 0 512 512" style="enable-background:new 0 0 512 512" xmlspace="preserve"><g><path xmlns="http://www.w3.org/2000/svg" d="m117.128906 507.96875c-10.476562 0-19.652344-7.015625-22.398437-17.125l-5.027344-18.519531h54.851563l-5.03125 18.519531c-2.742188 10.109375-11.917969 17.125-22.394532 17.125zm0 0" fill="#405872" data-original="#405872"></path><path xmlns="http://www.w3.org/2000/svg" d="m394.863281 507.96875c-10.472656 0-19.652343-7.015625-22.398437-17.125l-5.027344-18.519531h54.851562l-5.027343 18.519531c-2.746094 10.109375-11.921875 17.125-22.398438 17.125zm0 0" fill="#405872" data-original="#405872"></path><path xmlns="http://www.w3.org/2000/svg" d="m224.847656 74.058594c-2.007812 0-4.011718-.765625-5.542968-2.296875l-58.382813-58.382813c-3.0625-3.0625-3.0625-8.023437 0-11.082031 3.058594-3.0625 8.019531-3.0625 11.082031 0l58.386719 58.382813c3.058594 3.058593 3.058594 8.019531 0 11.082031-1.53125 1.53125-3.539063 2.296875-5.542969 2.296875zm0 0" fill="#b7d0e5" data-original="#b7d0e5"></path><path xmlns="http://www.w3.org/2000/svg" d="m291.957031 74.058594c-2.007812 0-4.011719-.765625-5.542969-2.296875-3.0625-3.0625-3.0625-8.023438 0-11.082031l58.382813-58.382813c3.0625-3.0625 8.023437-3.0625 11.082031 0 3.0625 3.058594 3.0625 8.019531 0 11.082031l-58.382812 58.382813c-1.527344 1.53125-3.535156 2.296875-5.539063 2.296875zm0 0" fill="#b7d0e5" data-original="#b7d0e5"></path><path xmlns="http://www.w3.org/2000/svg" d="m305.851562 94.558594h-94.90625c-.011718-12.152344 4.628907-24.304688 13.90625-33.5625 13.03125-13.042969 31.765626-16.90625 48.179688-11.601563 6.917969 2.238281 13.425781 6.105469 18.921875 11.601563 9.269531 9.257812 13.910156 21.410156 13.898437 33.5625zm0 0" fill="#27425b" data-original="#27425b"></path><path xmlns="http://www.w3.org/2000/svg" d="m305.851562 94.558594h-65.652343c-.007813-12.152344 4.628906-24.304688 13.910156-33.5625 5.496094-5.496094 12.003906-9.363282 18.921875-11.601563 6.917969 2.238281 13.425781 6.105469 18.921875 11.601563 9.269531 9.257812 13.910156 21.410156 13.898437 33.5625zm0 0" fill="#405872" data-original="#405872"></path><path xmlns="http://www.w3.org/2000/svg" d="m512 154.125v258.621094c0 33.480468-27.144531 60.625-60.625 60.625h-390.761719c-33.476562 0-60.613281-27.144532-60.613281-60.625v-258.621094c0-33.476562 27.136719-60.613281 60.613281-60.613281h390.761719c33.480469 0 60.625 27.136719 60.625 60.613281zm0 0" fill="#e2b74d" data-original="#e2b74d"></path><path xmlns="http://www.w3.org/2000/svg" d="m512 154.125v258.621094c0 33.480468-27.144531 60.625-60.625 60.625h-369.109375c-33.480469 0-60.625-27.144532-60.625-60.625v-258.621094c0-33.476562 27.144531-60.613281 60.625-60.613281h369.109375c33.480469 0 60.625 27.136719 60.625 60.613281zm0 0" fill="#f6d269" data-original="#f6d269"></path><path xmlns="http://www.w3.org/2000/svg" d="m378.660156 360.941406c-4.410156 35.664063-32.925781 63.59375-68.671875 67.304688-6.707031.699218-13.414062 1.324218-20.113281 1.878906-59.414062 4.910156-118.816406 4.285156-178.226562-1.878906-35.738282-3.710938-64.25-31.640625-68.660157-67.304688-6.394531-51.667968-6.394531-103.339844 0-155.007812 4.410157-35.664063 32.921875-63.59375 68.660157-67.304688 59.410156-6.164062 118.824218-6.789062 178.238281-1.867187 6.695312.550781 13.40625 1.167969 20.101562 1.867187 35.746094 3.710938 64.261719 31.640625 68.671875 67.304688 6.394532 51.667968 6.394532 103.339844 0 155.007812zm0 0" fill="#62798e" data-original="#62798e"></path><path xmlns="http://www.w3.org/2000/svg" d="m330.648438 367.964844c-3.292969 26.558594-18.828126 49.191406-40.773438 62.160156-59.414062 4.910156-118.816406 4.285156-178.226562-1.882812-35.738282-3.707032-64.25-31.636719-68.660157-67.300782-6.394531-51.667968-6.394531-103.339844 0-155.011718 4.410157-35.660157 32.921875-63.589844 68.660157-67.300782 59.410156-6.164062 118.824218-6.792968 178.238281-1.871094 21.933593 12.96875 37.46875 35.589844 40.761719 62.152344 6.96875 56.351563 6.96875 112.703125 0 169.054688zm0 0" fill="#405872" data-original="#405872"></path><path xmlns="http://www.w3.org/2000/svg" d="m460.570312 398.785156c-7.6875 7.703125-19.191406 9.25-28.417968 4.652344-2.332032-1.160156-4.503906-2.71875-6.4375-4.652344s-3.480469-4.105468-4.640625-6.4375c-4.597657-9.222656-3.050781-20.730468 4.640625-28.417968 7.691406-7.691407 19.195312-9.238282 28.421875-4.640626 2.328125 1.160157 4.503906 2.707032 6.433593 4.640626 1.933594 1.933593 3.492188 4.105468 4.652344 6.433593 4.597656 9.226563 3.050782 20.730469-4.652344 28.421875zm0 0" fill="#d4e8f4" data-original="#d4e8f4"></path><path xmlns="http://www.w3.org/2000/svg" d="m465.222656 317.691406c-1.160156 2.332032-2.707031 4.515625-4.652344 6.445313-1.929687 1.933593-4.105468 3.480469-6.433593 4.640625-9.226563 4.597656-20.730469 3.050781-28.421875-4.640625-7.691406-7.6875-9.238282-19.191407-4.640625-28.417969 1.160156-2.332031 2.707031-4.503906 4.640625-6.4375s4.105468-3.492188 6.4375-4.648438c9.226562-4.597656 20.730468-3.054687 28.417968 4.648438 7.691407 7.679688 9.25 19.183594 4.652344 28.410156zm0 0" fill="#d4e8f4" data-original="#d4e8f4"></path><g xmlns="http://www.w3.org/2000/svg" fill="#405872"><path d="m475.898438 185.164062h-65.507813c-4.332031 0-7.839844-3.511718-7.839844-7.835937 0-4.328125 3.507813-7.839844 7.839844-7.839844h65.507813c4.332031 0 7.839843 3.511719 7.839843 7.839844 0 4.324219-3.511719 7.835937-7.839843 7.835937zm0 0" fill="#405872" data-original="#405872"></path><path d="m475.898438 213.113281h-65.507813c-4.332031 0-7.839844-3.507812-7.839844-7.835937s3.507813-7.835938 7.839844-7.835938h65.507813c4.332031 0 7.839843 3.507813 7.839843 7.835938s-3.511719 7.835937-7.839843 7.835937zm0 0" fill="#405872" data-original="#405872"></path><path d="m475.898438 241.0625h-65.507813c-4.332031 0-7.839844-3.507812-7.839844-7.835938 0-4.328124 3.507813-7.835937 7.839844-7.835937h65.507813c4.332031 0 7.839843 3.507813 7.839843 7.835937 0 4.328126-3.511719 7.835938-7.839843 7.835938zm0 0" fill="#405872" data-original="#405872"></path></g><path xmlns="http://www.w3.org/2000/svg" d="m465.222656 370.363281-33.070312 33.074219c-2.332032-1.160156-4.503906-2.71875-6.4375-4.652344s-3.480469-4.105468-4.640625-6.4375l33.0625-33.058594c2.328125 1.160157 4.503906 2.707032 6.433593 4.640626 1.933594 1.933593 3.492188 4.105468 4.652344 6.433593zm0 0" fill="#b7d0e5" data-original="#b7d0e5"></path><path xmlns="http://www.w3.org/2000/svg" d="m465.222656 317.691406c-1.160156 2.332032-2.707031 4.515625-4.652344 6.445313-1.929687 1.933593-4.105468 3.480469-6.433593 4.640625l-33.0625-33.058594c1.160156-2.332031 2.707031-4.503906 4.640625-6.4375s4.105468-3.492188 6.4375-4.648438zm0 0" fill="#b7d0e5" data-original="#b7d0e5"></path><path xmlns="http://www.w3.org/2000/svg" d="m210.824219 441.207031c-33.410157 0-66.808594-1.722656-99.980469-5.167969-19.042969-1.976562-37.070312-10.453124-50.757812-23.867187-13.691407-13.414063-22.527344-31.265625-24.878907-50.265625-6.445312-52.066406-6.445312-104.867188 0-156.933594 2.351563-18.996094 11.1875-36.851562 24.878907-50.265625 13.6875-13.414062 31.714843-21.890625 50.757812-23.871093 66.339844-6.886719 133.617188-6.886719 199.960938 0 19.042968 1.980468 37.066406 10.453124 50.753906 23.871093 13.691406 13.417969 22.527344 31.269531 24.878906 50.265625 6.445312 52.066406 6.445312 104.867188 0 156.933594-2.351562 19-11.1875 36.851562-24.878906 50.265625-13.6875 13.414063-31.714844 21.890625-50.753906 23.867187-33.167969 3.445313-66.582032 5.167969-99.980469 5.167969zm-160.0625-81.226562c3.992187 32.246093 29.367187 57.113281 61.699219 60.46875 65.269531 6.777343 131.457031 6.777343 196.726562 0 32.332031-3.355469 57.707031-28.222657 61.695312-60.46875 6.289063-50.789063 6.289063-102.292969 0-153.082031-3.988281-32.25-29.363281-57.113282-61.695312-60.472657-65.269531-6.777343-131.457031-6.777343-196.726562 0-32.332032 3.359375-57.707032 28.222657-61.699219 60.472657-6.285157 50.789062-6.285157 102.292968 0 153.082031zm0 0" fill="#e2b74d" data-original="#e2b74d"></path></g></svg>