<?xml version="1.0" standalone="no"?>
<!DOCTYPE svg PUBLIC "-//W3C//DTD SVG 20010904//EN"
 "http://www.w3.org/TR/2001/REC-SVG-20010904/DTD/svg10.dtd">
<svg version="1.0" xmlns="http://www.w3.org/2000/svg"
 width="700.000000pt" height="700.000000pt" viewBox="0 0 700.000000 700.000000"
 preserveAspectRatio="xMidYMid meet">
<metadata>
Created by potrace 1.14, written by Peter Selinger 2001-2017
</metadata>
<g transform="translate(0.000000,700.000000) scale(0.100000,-0.100000)"
fill="#000000" stroke="none">
<path d="M3995 5940 c-27 -16 -50 -35 -50 -41 0 -6 24 -25 53 -42 46 -25 56
-28 67 -16 13 13 20 62 16 112 -2 24 -28 20 -86 -13z"/>
<path d="M3872 5408 c-78 -156 -160 -316 -183 -357 -48 -85 -46 -90 46 -92
194 -4 615 0 624 6 6 3 11 15 11 26 0 20 -322 663 -344 687 -9 9 -43 -50 -154
-270z"/>
<path d="M3189 4946 c-2 -2 -33 -7 -69 -10 -123 -13 -155 -17 -170 -21 -8 -2
-35 -7 -60 -10 -25 -3 -73 -13 -106 -20 -34 -8 -73 -17 -85 -19 -135 -29 -343
-95 -499 -159 -795 -322 -1447 -928 -1836 -1707 -138 -277 -256 -630 -308
-920 -14 -81 -19 -110 -31 -210 -3 -25 -8 -63 -11 -85 -3 -22 -8 -170 -11
-330 l-5 -290 141 1 c77 0 142 2 145 5 2 2 6 126 9 274 4 149 8 281 11 295 2
14 7 54 11 90 52 514 275 1074 605 1522 41 56 80 106 85 112 6 6 37 43 70 81
392 459 929 807 1518 985 131 40 375 94 472 104 28 4 75 9 105 12 111 11 180
71 180 155 0 63 -65 136 -127 144 -17 2 -32 2 -34 1z"/>
<path d="M3760 4807 c-37 -9 -49 -32 -56 -104 -4 -40 -15 -72 -35 -102 -16
-25 -29 -54 -29 -65 0 -28 55 -123 79 -135 23 -13 220 -25 391 -25 132 0 165
9 218 58 60 54 66 108 20 192 -20 38 -32 77 -34 108 -5 80 1 78 -278 80 -135
0 -259 -2 -276 -7z"/>
<path d="M4747 4675 c-74 -39 -98 -120 -55 -196 19 -34 39 -47 177 -115 246
-121 477 -265 622 -389 19 -16 60 -50 90 -75 68 -55 277 -264 349 -349 244
-285 441 -619 575 -976 33 -89 99 -297 110 -350 50 -243 59 -290 71 -400 3
-27 7 -63 10 -80 2 -16 7 -151 11 -300 3 -148 7 -272 9 -274 2 -3 66 -5 142
-5 l137 0 0 244 c0 218 -7 374 -20 465 -2 17 -6 48 -9 70 -3 22 -12 76 -20
120 -8 44 -17 96 -21 115 -12 71 -76 302 -116 417 -238 692 -681 1285 -1279
1713 -186 133 -459 288 -644 364 -48 20 -102 20 -139 1z"/>
<path d="M3262 4499 c-29 -12 -52 -25 -50 -31 2 -6 30 -24 61 -42 53 -29 59
-30 71 -14 7 9 12 36 11 60 -2 52 -16 57 -93 27z"/>
<path d="M3690 4250 c-11 -7 -14 -36 -15 -134 -1 -69 -3 -127 -6 -130 -17 -18
-193 -23 -213 -7 -7 6 -16 26 -20 43 -3 18 -22 64 -41 103 -31 62 -40 72 -81
89 -65 27 -87 13 -115 -73 -12 -36 -41 -100 -65 -141 -47 -84 -72 -156 -58
-169 19 -19 177 -24 732 -25 565 -1 573 -1 578 19 3 11 6 99 7 195 1 128 -2
184 -11 207 l-14 32 -331 0 c-189 1 -338 -3 -347 -9z"/>
<path d="M4580 4208 c-30 -11 -56 -22 -58 -23 -11 -9 19 -41 61 -65 70 -40 86
-30 84 50 -2 69 -3 70 -87 38z"/>
<path d="M2243 4048 c-57 -22 -66 -37 -30 -54 12 -5 41 -21 64 -34 23 -14 45
-22 49 -18 4 4 7 33 8 65 1 69 -8 73 -91 41z"/>
<path d="M4638 3889 c-9 -24 -33 -89 -53 -144 -20 -55 -48 -124 -62 -153 l-26
-53 18 -65 c10 -37 28 -77 39 -91 20 -23 30 -26 110 -28 107 -3 132 12 142 86
5 38 -3 72 -54 225 -34 98 -69 199 -79 223 l-19 44 -16 -44z"/>
<path d="M2213 3768 c-24 -27 -89 -156 -122 -243 -13 -33 -30 -75 -38 -93 -8
-18 -13 -43 -11 -55 3 -22 5 -22 193 -24 205 -2 255 2 255 19 0 17 -121 319
-142 355 -37 63 -98 81 -135 41z"/>
<path d="M2819 3770 c-1 -5 -2 -13 -3 -17 -1 -5 -6 -33 -10 -63 -4 -30 -9 -66
-11 -80 -2 -14 -7 -76 -10 -137 -6 -91 -4 -113 7 -114 7 -1 31 -3 52 -4 81 -7
85 8 48 175 -11 52 -23 106 -26 120 -16 85 -29 130 -37 130 -5 0 -10 -4 -10
-10z"/>
<path d="M5165 3756 c-33 -12 -59 -26 -59 -31 3 -12 127 -84 136 -78 5 2 8 33
8 69 0 73 2 72 -85 40z"/>
<path d="M3097 3643 c-4 -3 -7 -27 -7 -52 0 -25 -5 -83 -12 -129 -9 -64 -8
-86 1 -95 17 -17 1345 -19 1368 -1 33 23 5 220 -35 252 -12 9 -159 12 -654 12
-419 0 -638 3 -638 10 0 11 -13 13 -23 3z"/>
<path d="M5240 3494 c0 -4 -15 -66 -34 -138 -108 -410 -109 -419 -91 -432 13
-10 53 -12 142 -10 68 2 127 6 130 10 4 3 -17 102 -45 219 -29 116 -59 245
-68 285 -9 39 -20 72 -25 72 -5 0 -9 -3 -9 -6z"/>
<path d="M1927 3221 c-32 -10 -35 -21 -21 -84 7 -35 15 -94 18 -132 3 -37 10
-73 16 -79 12 -12 2978 -16 3011 -4 19 7 19 9 -7 60 -15 29 -37 83 -50 121
-39 114 92 102 -1113 105 -757 2 -1063 -1 -1082 -9 -15 -6 -33 -24 -39 -39
-18 -44 -105 -121 -127 -113 -40 14 -43 52 -11 118 12 24 19 47 16 51 -7 6
-590 12 -611 5z"/>
<path d="M1363 3038 c-29 -11 -53 -24 -53 -28 0 -4 16 -15 35 -24 19 -9 48
-28 64 -42 17 -14 35 -23 40 -20 5 3 8 34 7 68 -1 75 -11 79 -93 46z"/>
<path d="M1417 2759 c-21 -12 -47 -63 -76 -147 -27 -80 -31 -104 -19 -119 12
-15 273 -19 282 -4 13 21 -84 222 -126 261 -24 22 -35 24 -61 9z"/>
<path d="M1927 2753 c-26 -30 -44 -221 -23 -255 10 -17 111 -18 1898 -18 1077
0 1888 4 1888 9 0 5 -7 26 -16 47 -9 21 -18 57 -20 79 -7 65 -12 78 -43 113
-39 42 -68 41 -115 -3 -43 -40 -61 -44 -76 -14 -6 11 -26 29 -43 39 -31 20
-66 20 -1733 20 -1607 0 -1702 -1 -1717 -17z"/>
<path d="M1218 2330 c-12 -3 -32 -19 -43 -36 -11 -16 -45 -63 -76 -104 -64
-85 -83 -119 -74 -128 12 -12 108 -14 1119 -17 980 -4 1021 -3 1046 15 144
103 332 146 495 115 89 -17 142 -38 231 -91 l71 -43 959 3 c844 3 1017 6 1033
21 19 19 -123 217 -178 249 -34 20 -64 20 -2297 20 -1245 1 -2273 -1 -2286 -4z"/>
<path d="M1138 1889 c-5 -4 -7 -15 -4 -25 3 -11 -1 -58 -9 -104 -18 -104 -19
-146 -2 -152 6 -3 419 -4 916 -4 l904 1 18 76 c10 41 30 102 45 135 15 32 28
64 28 69 1 11 -1877 15 -1896 4z"/>
<path d="M4124 1888 c-2 -4 5 -22 16 -40 22 -36 58 -142 66 -198 3 -19 8 -37
11 -40 8 -9 1647 -7 1664 1 15 8 15 15 4 71 -8 35 -16 94 -19 132 -3 38 -8 72
-12 75 -8 9 -1725 8 -1730 -1z"/>
<path d="M1068 1450 c-16 -10 -21 -33 -33 -135 -3 -27 -8 -69 -11 -91 -4 -29
-2 -44 7 -50 13 -7 1804 -13 1860 -6 l27 4 -1 143 -2 144 -915 0 c-578 0 -921
-3 -932 -9z"/>
<path d="M4230 1316 c0 -106 3 -145 13 -148 10 -3 1654 -2 1710 1 15 1 17 8
13 54 -3 28 -8 88 -12 132 -3 44 -11 86 -16 92 -8 10 -202 12 -859 12 l-849 0
0 -143z"/>
</g>
</svg>
